<svg width="61" height="56" viewBox="0 0 61 56" fill="none" xmlns="http://www.w3.org/2000/svg">
<path d="M0.5 44.53V36.83C0.5 35.2717 0.90104 33.8394 1.70312 32.5331C2.50521 31.2269 3.57083 30.23 4.9 29.5425C7.7417 28.1217 10.6292 27.056 13.5625 26.3456C16.4958 25.6352 19.475 25.28 22.5 25.28C24.5625 25.28 26.6021 25.4404 28.6188 25.7613C30.6354 26.0821 32.6521 26.5863 34.6688 27.2738C33.8896 27.9154 33.1792 28.6144 32.5375 29.3706C31.8958 30.1269 31.3229 30.9404 30.8188 31.8112C29.4438 31.4446 28.0688 31.181 26.6938 31.0206C25.3188 30.8602 23.9208 30.78 22.5 30.78C19.9333 30.78 17.3896 31.0894 14.8687 31.7081C12.3479 32.3269 9.85 33.255 7.375 34.4925C6.9625 34.7217 6.6302 35.0425 6.3781 35.455C6.126 35.8675 6 36.3258 6 36.83V39.03H28.2062C28.1146 39.9467 28.0688 40.8633 28.0688 41.78C28.0688 42.6967 28.1146 43.6133 28.2062 44.53H0.5ZM22.5 22.53C19.475 22.53 16.8854 21.4529 14.7313 19.2988C12.5771 17.1446 11.5 14.555 11.5 11.53C11.5 8.50503 12.5771 5.91545 14.7313 3.76128C16.8854 1.60711 19.475 0.530029 22.5 0.530029C25.525 0.530029 28.1146 1.60711 30.2687 3.76128C32.4229 5.91545 33.5 8.50503 33.5 11.53C33.5 14.555 32.4229 17.1446 30.2687 19.2988C28.1146 21.4529 25.525 22.53 22.5 22.53ZM22.5 17.03C24.0125 17.03 25.3073 16.4915 26.3844 15.4144C27.4615 14.3373 28 13.0425 28 11.53C28 10.0175 27.4615 8.72274 26.3844 7.64566C25.3073 6.56857 24.0125 6.03003 22.5 6.03003C20.9875 6.03003 19.6927 6.56857 18.6156 7.64566C17.5385 8.72274 17 10.0175 17 11.53C17 13.0425 17.5385 14.3373 18.6156 15.4144C19.6927 16.4915 20.9875 17.03 22.5 17.03ZM50 11.53C50 14.555 48.9229 17.1446 46.7688 19.2988C44.6146 21.4529 42.025 22.53 39 22.53C38.4958 22.53 37.8542 22.4727 37.075 22.3581C36.2958 22.2435 35.6542 22.1175 35.15 21.98C36.3875 20.5133 37.3385 18.8863 38.0031 17.0988C38.6677 15.3113 39 13.455 39 11.53C39 9.60503 38.6677 7.74878 38.0031 5.96128C37.3385 4.17378 36.3875 2.5467 35.15 1.08003C35.7917 0.850862 36.4333 0.701904 37.075 0.633154C37.7167 0.564404 38.3583 0.530029 39 0.530029C42.025 0.530029 44.6146 1.60711 46.7688 3.76128C48.9229 5.91545 50 8.50503 50 11.53ZM47.25 55.53C43.4458 55.53 40.2031 54.1894 37.5219 51.5081C34.8406 48.8269 33.5 45.5842 33.5 41.78C33.5 37.93 34.8406 34.6758 37.5219 32.0175C40.2031 29.3592 43.4458 28.03 47.25 28.03C51.1 28.03 54.3542 29.3592 57.0125 32.0175C59.6708 34.6758 61 37.93 61 41.78C61 45.5842 59.6708 48.8269 57.0125 51.5081C54.3542 54.1894 51.1 55.53 47.25 55.53ZM45.325 47.9675L55.0188 38.205L53.0938 36.28L45.325 44.0487L41.4062 40.13L39.4813 42.1238L45.325 47.9675Z" fill="#F59E0B"/>
</svg>
