<svg width="62" height="56" viewBox="0 0 62 56" fill="none" xmlns="http://www.w3.org/2000/svg">
<path d="M30.6564 49.53C30.8397 49.53 31.0231 49.4842 31.2064 49.3925C31.3897 49.3008 31.5272 49.2092 31.6189 49.1175L54.1689 26.5675C54.7189 26.0175 55.12 25.3988 55.372 24.7113C55.6241 24.0238 55.7502 23.3363 55.7502 22.6488C55.7502 21.9154 55.6241 21.2165 55.372 20.5519C55.12 19.8873 54.7189 19.3029 54.1689 18.7988L42.4814 7.11133C41.9772 6.56133 41.3929 6.16023 40.7283 5.90813C40.0637 5.65603 39.3647 5.53003 38.6314 5.53003C37.9439 5.53003 37.2564 5.65603 36.5689 5.90813C35.8814 6.16023 35.2627 6.56133 34.7127 7.11133L33.9564 7.86753L39.0439 13.0237C39.7314 13.6654 40.2356 14.3988 40.5564 15.2238C40.8772 16.0488 41.0377 16.9196 41.0377 17.8362C41.0377 19.7612 40.3845 21.3769 39.0783 22.6831C37.772 23.9894 36.1564 24.6425 34.2314 24.6425C33.3147 24.6425 32.4324 24.4821 31.5845 24.1613C30.7366 23.8404 29.9918 23.3592 29.3502 22.7175L24.1939 17.63L12.1627 29.6613C12.0252 29.7988 11.922 29.9477 11.8533 30.1081C11.7845 30.2685 11.7502 30.4404 11.7502 30.6238C11.7502 30.9904 11.8877 31.3227 12.1627 31.6206C12.4377 31.9185 12.7585 32.0675 13.1252 32.0675C13.3085 32.0675 13.4918 32.0217 13.6752 31.93C13.8585 31.8383 13.996 31.7467 14.0877 31.655L23.4377 22.305L27.2877 26.155L18.0064 35.505C17.8689 35.6425 17.7658 35.7915 17.697 35.9519C17.6283 36.1123 17.5939 36.2842 17.5939 36.4675C17.5939 36.8342 17.7314 37.155 18.0064 37.43C18.2814 37.705 18.6022 37.8425 18.9689 37.8425C19.1522 37.8425 19.3356 37.7967 19.5189 37.705C19.7022 37.6133 19.8397 37.5217 19.9314 37.43L29.2814 28.1488L33.1314 31.9988L23.8502 41.3488C23.7127 41.4404 23.6095 41.5779 23.5408 41.7613C23.472 41.9446 23.4377 42.1279 23.4377 42.3112C23.4377 42.6779 23.5752 42.9988 23.8502 43.2738C24.1252 43.5488 24.446 43.6862 24.8127 43.6862C24.996 43.6862 25.1679 43.6519 25.3283 43.5831C25.4887 43.5144 25.6377 43.4113 25.7752 43.2738L35.1252 33.9925L38.9752 37.8425L29.6252 47.1925C29.4877 47.33 29.3845 47.479 29.3158 47.6394C29.247 47.7998 29.2127 47.9717 29.2127 48.155C29.2127 48.5217 29.3616 48.8425 29.6595 49.1175C29.9574 49.3925 30.2897 49.53 30.6564 49.53ZM30.5877 55.03C28.8918 55.03 27.3908 54.4685 26.0845 53.3456C24.7783 52.2227 24.0106 50.8133 23.7814 49.1175C22.2231 48.8883 20.9168 48.2467 19.8627 47.1925C18.8085 46.1383 18.1668 44.8321 17.9377 43.2738C16.3793 43.0446 15.0845 42.3915 14.0533 41.3144C13.022 40.2373 12.3918 38.9425 12.1627 37.43C10.421 37.2008 9.0002 36.4446 7.90016 35.1613C6.80016 33.8779 6.25016 32.3654 6.25016 30.6238C6.25016 29.7071 6.42203 28.8248 6.76578 27.9769C7.10953 27.129 7.60224 26.3842 8.2439 25.7425L24.1939 9.86133L33.2002 18.8675C33.2918 19.005 33.4293 19.1081 33.6127 19.1769C33.796 19.2456 33.9793 19.28 34.1627 19.28C34.5752 19.28 34.9189 19.154 35.1939 18.9019C35.4689 18.6498 35.6064 18.3175 35.6064 17.905C35.6064 17.7217 35.572 17.5383 35.5033 17.355C35.4345 17.1717 35.3314 17.0342 35.1939 16.9425L25.3627 7.11133C24.8585 6.56133 24.2741 6.16023 23.6095 5.90813C22.9449 5.65603 22.246 5.53003 21.5127 5.53003C20.8252 5.53003 20.1377 5.65603 19.4502 5.90813C18.7627 6.16023 18.1439 6.56133 17.5939 7.11133L7.90016 16.8738C7.48766 17.2863 7.14391 17.7675 6.86891 18.3175C6.59391 18.8675 6.41057 19.4175 6.31891 19.9675C6.22724 20.5175 6.22724 21.079 6.31891 21.6519C6.41057 22.2248 6.59391 22.7633 6.86891 23.2675L2.88141 27.255C2.10224 26.2008 1.52932 25.0435 1.16266 23.7831C0.795988 22.5227 0.658488 21.2508 0.750158 19.9675C0.841818 18.6842 1.16266 17.4352 1.71266 16.2206C2.26266 15.006 3.01891 13.9175 3.98141 12.955L13.6752 3.26128C14.7752 2.20711 16.0012 1.40503 17.3533 0.855029C18.7054 0.305029 20.0918 0.0300293 21.5127 0.0300293C22.9335 0.0300293 24.3199 0.305029 25.672 0.855029C27.0241 1.40503 28.2272 2.20711 29.2814 3.26128L30.0377 4.01753L30.7939 3.26128C31.8939 2.20711 33.1199 1.40503 34.472 0.855029C35.8241 0.305029 37.2106 0.0300293 38.6314 0.0300293C40.0522 0.0300293 41.4387 0.305029 42.7908 0.855029C44.1429 1.40503 45.346 2.20711 46.4002 3.26128L58.0189 14.88C59.0731 15.9342 59.8752 17.1487 60.4252 18.5237C60.9752 19.8987 61.2502 21.2967 61.2502 22.7175C61.2502 24.1383 60.9752 25.5248 60.4252 26.8769C59.8752 28.229 59.0731 29.4321 58.0189 30.4862L35.4689 52.9675C34.8272 53.6092 34.0824 54.1133 33.2345 54.48C32.3866 54.8467 31.5043 55.03 30.5877 55.03Z" fill="#F59E0B"/>
</svg>
