<svg width="44" height="56" viewBox="0 0 44 56" fill="none" xmlns="http://www.w3.org/2000/svg">
<path d="M22 41.28C25.8042 41.28 29.0469 39.9394 31.7281 37.2581C34.4094 34.5769 35.75 31.3342 35.75 27.53C35.75 23.7258 34.4094 20.4831 31.7281 17.8019C29.0469 15.1206 25.8042 13.78 22 13.78C18.1958 13.78 14.9531 15.1206 12.2719 17.8019C9.5906 20.4831 8.25 23.7258 8.25 27.53C8.25 31.3342 9.5906 34.5769 12.2719 37.2581C14.9531 39.9394 18.1958 41.28 22 41.28ZM26.5375 33.9925L20.625 28.08V19.28H23.375V26.98L28.4625 32.0675L26.5375 33.9925ZM22 55.03C15.6292 53.4258 10.3698 49.7706 6.2219 44.0644C2.074 38.3581 0 32.0217 0 25.055V8.28003L22 0.0300293L44 8.28003V25.055C44 32.0217 41.926 38.3581 37.7781 44.0644C33.6302 49.7706 28.3708 53.4258 22 55.03ZM22 49.255C26.7667 47.7425 30.7083 44.7175 33.825 40.18C36.9417 35.6425 38.5 30.6008 38.5 25.055V12.0612L22 5.87383L5.5 12.0612V25.055C5.5 30.6008 7.0583 35.6425 10.175 40.18C13.2917 44.7175 17.2333 47.7425 22 49.255Z" fill="#F59E0B"/>
</svg>
