<svg width="94" height="93" viewBox="0 0 94 93" fill="none" xmlns="http://www.w3.org/2000/svg">
<path fill-rule="evenodd" clip-rule="evenodd" d="M93.3333 93H74.7333V60.4545C74.7333 51.5265 70.7947 46.5454 63.7314 46.5454C56.0449 46.5454 51.4833 51.7358 51.4833 60.4545V93H32.8833V32.55H51.4833V39.3479C51.4833 39.3479 57.319 29.1079 70.4692 29.1079C83.624 29.1079 93.3333 37.1354 93.3333 53.7452V93ZM11.6886 22.8822C5.41571 22.8822 0.333252 17.7582 0.333252 11.4388C0.333252 5.12412 5.41571 0 11.6886 0C17.9568 0 23.0392 5.12412 23.0392 11.4388C23.0438 17.7582 17.9568 22.8822 11.6886 22.8822ZM0.333252 93H23.5833V32.55H0.333252V93Z" fill="#F5F5F5"/>
</svg>
