<svg width="85" height="88" viewBox="0 0 85 88" fill="none" xmlns="http://www.w3.org/2000/svg">
<path d="M19.8872 27.5852C20.3252 24.1209 24.8275 19.4126 28.4005 19.935L28.3948 19.9293C31.8721 20.5901 34.6248 26.575 36.1769 29.2662C37.2767 31.2188 36.5626 33.1971 35.5368 34.0319C34.1529 35.1472 31.989 36.6862 32.443 38.2314C33.2502 40.9784 42.8335 50.5617 47.547 53.286C49.331 54.3172 50.6248 51.5975 51.7295 50.204C52.5322 49.1322 54.5121 48.4917 56.4602 49.5497C59.3697 51.244 62.1106 53.2132 64.6452 55.43C65.9109 56.488 66.208 58.0516 65.331 59.7042C63.7861 62.6148 59.318 66.4532 56.0746 65.6731C50.4097 64.3111 27.5002 55.43 20.1414 29.7007C19.7276 28.4835 19.8318 28.0234 19.8872 27.5852Z" fill="#F5F5F5"/>
<path fill-rule="evenodd" clip-rule="evenodd" d="M42.8334 85.0618C38.1429 85.0618 35.5478 84.5585 31.3334 83.1452L23.2621 87.1809C18.1645 89.7297 12.1667 86.0229 12.1667 80.3235V71.6452C3.91186 63.9478 0.666748 55.0725 0.666748 42.8952C0.666748 19.6072 19.5454 0.728516 42.8334 0.728516C66.1213 0.728516 85.0001 19.6072 85.0001 42.8952C85.0001 66.1831 66.1213 85.0618 42.8334 85.0618ZM19.8334 68.3113L17.3952 66.0378C10.9817 60.0578 8.33341 53.3721 8.33341 42.8952C8.33341 23.8414 23.7796 8.39518 42.8334 8.39518C61.8874 8.39518 77.3334 23.8414 77.3334 42.8952C77.3334 61.9491 61.8874 77.3952 42.8334 77.3952C39.0549 77.3952 37.2827 77.054 33.7712 75.8764L30.7525 74.864L19.8334 80.3235V68.3113Z" fill="#F5F5F5"/>
</svg>
