<svg width="64" height="66" viewBox="0 0 64 66" fill="none" xmlns="http://www.w3.org/2000/svg">
<path fill-rule="evenodd" clip-rule="evenodd" d="M54.8031 0.5C59.6985 0.5 63.6667 5.95655 63.6667 12.6875V53.3125C63.6667 60.0437 59.6985 65.5 54.8031 65.5H7.53038C2.63515 65.5 -1.33325 60.0437 -1.33325 53.3125V12.6875C-1.33325 5.95655 2.63515 0.5 7.53038 0.5H54.8031ZM52.5958 8.625H9.73796L29.3361 29.8991C30.4095 31.0646 31.924 31.0646 32.9977 29.8991L52.5958 8.625ZM4.57584 13.3732V53.3125C4.57584 55.5562 5.89865 57.375 7.53038 57.375H54.8031C56.4349 57.375 57.7577 55.5562 57.7577 53.3125V13.3733L36.659 36.2764C33.4388 39.7722 28.8947 39.7722 25.6745 36.2764L4.57584 13.3732Z" fill="#F5F5F5"/>
</svg>
