<svg width="67" height="71" viewBox="0 0 67 71" fill="none" xmlns="http://www.w3.org/2000/svg">
<path d="M48.4168 70.8405V52.9239C48.4168 51.34 48.0638 49.8386 47.4457 48.4823C48.9238 48.1831 50.402 47.8409 51.8747 47.4055C56.4022 46.069 62.9006 40.5273 64.8213 35.1093C66.9498 29.0965 66.9498 22.9977 64.8213 16.9848L64.8195 16.983C64.4379 15.9027 63.8574 14.8133 63.0314 13.6362C64.5507 7.98529 63.4847 3.25887 63.4345 3.03849L62.7806 0.236328L59.9032 0.27037C59.6344 0.273953 53.6682 0.383245 47.856 3.77308C41.1286 2.458 34.2103 2.458 27.483 3.77308C21.6726 0.383245 15.7063 0.273953 15.4358 0.27037L12.5548 0.236328L11.9008 3.03849C11.8507 3.25887 10.7846 7.98529 12.304 13.6362C11.478 14.8133 10.8975 15.9045 10.5141 16.9848C8.38737 22.9977 8.38737 29.0965 10.5159 35.1111C12.433 40.5273 18.9313 46.069 23.4607 47.4055C24.9334 47.8409 26.4115 48.1831 27.8897 48.4823C27.2495 49.8756 26.9177 51.3906 26.9168 52.9239V55.219C26.8057 55.2835 26.6892 55.3355 26.5817 55.4125C26.064 55.7905 21.4415 58.9367 16.7186 55.5737C15.0524 53.8788 14.2354 52.6372 13.447 51.4368C11.6769 48.7493 10.1486 46.8035 5.22687 44.3418C4.37654 43.9167 3.39218 43.8469 2.49035 44.1476C1.58852 44.4483 0.843085 45.095 0.418037 45.9453C-0.00701122 46.7957 -0.0768566 47.78 0.223866 48.6818C0.524588 49.5837 1.17124 50.3291 2.02158 50.7542C5.58879 52.5369 6.21587 53.4865 7.45929 55.3785C8.38199 56.7777 9.52866 58.521 11.8399 60.8323L12.2251 61.1655C15.2566 63.441 18.401 64.2526 21.2784 64.2526C23.2025 64.2425 25.1102 63.8988 26.9168 63.2367V70.8567L48.4168 70.8405Z" fill="#F5F5F5"/>
</svg>
