<svg width="66" height="66" viewBox="0 0 66 66" fill="none" xmlns="http://www.w3.org/2000/svg">
<path d="M63.1533 0H2.84672C1.28102 0 0 1.28287 0 2.85082V9.76882H65.9999V2.85082C66 1.28287 64.719 0 63.1533 0ZM45.2171 6.07225H42.5601C41.9078 6.07225 41.374 5.53772 41.374 4.88441C41.374 4.2311 41.9078 3.69657 42.5601 3.69657H45.2171C45.8694 3.69657 46.4032 4.2311 46.4032 4.88441C46.4032 5.53772 45.8694 6.07225 45.2171 6.07225ZM53.1404 6.07225H50.4835C49.8311 6.07225 49.2974 5.53772 49.2974 4.88441C49.2974 4.2311 49.8311 3.69657 50.4835 3.69657H53.1404C53.7928 3.69657 54.3266 4.2311 54.3266 4.88441C54.3266 5.53772 53.7928 6.07225 53.1404 6.07225ZM61.0638 6.07225H58.4069C57.7545 6.07225 57.2207 5.53772 57.2207 4.88441C57.2207 4.2311 57.7545 3.69657 58.4069 3.69657H61.0638C61.7162 3.69657 62.2499 4.2311 62.2499 4.88441C62.2499 5.53772 61.7162 6.07225 61.0638 6.07225Z" fill="#F59E0B"/>
<path d="M25.8183 47.2345C26.3393 47.0017 26.7634 46.6188 27.0443 46.1341C27.1183 46.0077 27.1828 45.8737 27.236 45.7341C27.3517 45.43 27.4115 45.1145 27.4144 44.798C27.4191 44.4474 27.3536 44.0977 27.2189 43.7651C27.2066 43.7328 27.1933 43.7005 27.179 43.6691C27.0433 43.3641 26.8555 43.0913 26.6258 42.8623C26.6078 42.8433 26.5898 42.8253 26.5717 42.8082C26.5148 42.754 26.455 42.7027 26.3933 42.6533C26.1808 42.4851 25.9417 42.3482 25.6807 42.2485C25.3685 42.1287 25.0421 42.0688 24.7176 42.0688C24.6056 42.0688 24.4927 42.0755 24.3817 42.0917C24.1217 42.123 23.8645 42.1952 23.6187 42.3055C22.2618 42.9127 21.6507 44.512 22.2571 45.8709C22.8634 47.2307 24.4614 47.8418 25.8183 47.2345Z" fill="#F59E0B"/>
<path d="M29.6129 26.8105C30.1984 27.3958 31.0296 27.6838 31.8561 27.5802C31.9852 27.564 32.1133 27.5384 32.2414 27.5032C32.3685 27.4671 32.4947 27.4224 32.619 27.3664C33.2576 27.0813 33.7511 26.57 34.0139 25.9239C34.0225 25.9049 34.03 25.8849 34.0376 25.8659C34.068 25.787 34.0936 25.7072 34.1173 25.6264C34.2862 25.0211 34.2407 24.3825 33.9807 23.8009C33.9 23.6185 33.7995 23.4474 33.6827 23.2906C33.5907 23.1643 33.4863 23.0474 33.3734 22.94C33.12 22.6996 32.8192 22.5086 32.4824 22.3803C32.1692 22.2605 31.8438 22.2007 31.5183 22.2007C31.1444 22.2007 30.7715 22.2796 30.4204 22.4373C29.0625 23.0445 28.4524 24.6448 29.0587 26.0037C29.1973 26.3135 29.3861 26.5843 29.6129 26.8105Z" fill="#F59E0B"/>
<path d="M39.9835 30.8774C41.2047 30.331 42.5294 30.3091 43.7032 30.7168L46.6828 25.2185C46.1637 24.751 45.7434 24.1752 45.4492 23.5166V23.5156L36.5826 25.1672C36.5551 25.6899 36.445 26.2106 36.2533 26.7142C36.1044 27.1029 35.9127 27.4678 35.6812 27.8014L38.9577 31.4913C39.268 31.2509 39.6106 31.0446 39.9835 30.8774Z" fill="#F59E0B"/>
<path d="M28.6545 41.5728L37.355 37.4163C36.8084 36.0688 36.8843 34.6111 37.4565 33.3767L33.9067 29.3789C33.8023 29.435 33.696 29.4872 33.5869 29.5357C32.9179 29.835 32.2167 29.9766 31.5268 29.9766C31.3655 29.9766 31.2042 29.969 31.0448 29.9529L27.438 40.4895C27.8935 40.7793 28.3062 41.1424 28.6545 41.5728Z" fill="#F59E0B"/>
<path d="M41.383 38.124C41.4969 38.1534 41.6127 38.1753 41.7303 38.1896C41.8328 38.2019 41.9363 38.2086 42.0397 38.2095C42.1431 38.2105 42.2465 38.2048 42.3509 38.1934C42.6204 38.163 42.8899 38.0917 43.1508 37.9748C43.6338 37.7591 44.0333 37.4141 44.3123 36.9789C44.4148 36.8221 44.5002 36.653 44.5685 36.4743C44.8257 35.8015 44.8057 35.0679 44.5125 34.4094C44.4964 34.3723 44.4784 34.3362 44.4603 34.3001C44.318 34.016 44.1301 33.7622 43.9052 33.5484C43.6509 33.308 43.3501 33.117 43.0133 32.9887C42.8595 32.9298 42.702 32.8851 42.5436 32.8557C42.3803 32.8253 42.2152 32.8101 42.0501 32.8101C41.6763 32.8101 41.3033 32.8889 40.9513 33.0457C40.8052 33.1113 40.6685 33.1873 40.5404 33.2747C39.7898 33.7822 39.3552 34.6317 39.3552 35.5145C39.3552 35.8063 39.4027 36.1018 39.5023 36.3897C39.5279 36.4648 39.5564 36.5389 39.5896 36.6121C39.9379 37.3932 40.6135 37.9263 41.383 38.124Z" fill="#F59E0B"/>
<path d="M48.7685 26.3496L45.7083 31.998C46.102 32.4076 46.4332 32.8922 46.678 33.4406C47.2303 34.6778 47.2683 36.0576 46.7853 37.3234C46.6296 37.7301 46.4266 38.1093 46.1818 38.4552L52.9569 43.8061C53.1372 43.6418 53.3289 43.4897 53.5329 43.3519L49.9461 26.5226C49.5513 26.5121 49.1566 26.4551 48.7685 26.3496Z" fill="#F59E0B"/>
<path d="M53.9209 48.6526C54.5273 50.0115 56.1243 50.6235 57.4812 50.0163C58.1388 49.7226 58.6427 49.1895 58.8999 48.5158C59.157 47.842 59.1361 47.1084 58.8429 46.4508C58.6958 46.1211 58.489 45.8303 58.2356 45.5899C57.9813 45.3495 57.6805 45.1594 57.3446 45.0302C57.0315 44.9104 56.706 44.8506 56.3805 44.8506C56.3464 44.8506 56.3131 44.8515 56.279 44.8534C55.9393 44.8658 55.6015 44.9437 55.2817 45.0872C55.1355 45.1528 54.998 45.2297 54.8698 45.3172C54.161 45.7961 53.735 46.581 53.6904 47.4106V47.4116C53.678 47.6444 53.6951 47.881 53.7463 48.1148C53.7843 48.2963 53.8422 48.4768 53.9209 48.6526Z" fill="#F59E0B"/>
<path d="M0 54.0022C0 55.5702 1.28102 56.853 2.84672 56.853H19.8053L31.3519 65.4536C32.3302 66.1822 33.6697 66.1822 34.6481 65.4536L46.1947 56.853H63.1533C64.719 56.853 66 55.5702 66 54.0022V12.1445H0V54.0022ZM22.6508 40.137C23.4773 39.7674 24.3512 39.6372 25.1938 39.7189L28.8006 29.1832C27.9884 28.6682 27.3137 27.9165 26.8924 26.9729C26.3401 25.7347 26.3022 24.3558 26.7861 23.0891C27.2691 21.8234 28.2161 20.8218 29.4525 20.2687C30.688 19.7157 32.0649 19.6776 33.3298 20.1613C34.5937 20.646 35.5948 21.5934 36.147 22.8316L45.0136 21.18C45.0411 20.6574 45.1512 20.1367 45.3429 19.6339C45.8259 18.3672 46.7729 17.3656 48.0093 16.8126C49.2448 16.2595 50.6217 16.2215 51.8865 16.7052C53.1505 17.1898 54.1506 18.1382 54.7029 19.3755C55.2552 20.6137 55.2931 21.9925 54.8101 23.2583C54.3423 24.4832 53.4418 25.4601 52.2652 26.0236L55.7799 42.5118C57.9244 42.2562 60.0822 43.405 61.0084 45.4814C61.5606 46.7186 61.5986 48.0975 61.1156 49.3642C60.6317 50.63 59.6847 51.6325 58.4492 52.1856C57.7878 52.4811 57.0865 52.6294 56.3834 52.6294C55.7723 52.6294 55.1603 52.5172 54.572 52.292C53.3071 51.8083 52.3069 50.8599 51.7547 49.6217C51.5127 49.0801 51.3694 48.5109 51.3257 47.935L29.5436 46.3195C29.5161 46.4079 29.4848 46.4953 29.4516 46.5828C28.9686 47.8485 28.0216 48.8511 26.7861 49.4041C26.1162 49.7035 25.4159 49.8451 24.726 49.8451C22.7865 49.8451 20.9323 48.7256 20.0916 46.8403C18.951 44.2859 20.0992 41.2783 22.6508 40.137ZM5.73405 17.0806H14.5003C15.1554 17.0806 15.6865 17.6125 15.6865 18.2685C15.6865 18.9245 15.1554 19.4563 14.5003 19.4563H5.73405C5.07892 19.4563 4.54791 18.9245 4.54791 18.2685C4.54791 17.6125 5.07892 17.0806 5.73405 17.0806ZM5.73405 21.832H11.3373C11.9925 21.832 12.5235 22.3639 12.5235 23.0199C12.5235 23.6759 11.9925 24.2077 11.3373 24.2077H5.73405C5.07892 24.2077 4.54791 23.6759 4.54791 23.0199C4.54791 22.3639 5.07892 21.832 5.73405 21.832ZM5.73405 26.5834H7.60491C8.26003 26.5834 8.79104 27.1152 8.79104 27.7712C8.79104 28.4273 8.26003 28.9591 7.60491 28.9591H5.73405C5.07892 28.9591 4.54791 28.4273 4.54791 27.7712C4.54791 27.1152 5.07892 26.5834 5.73405 26.5834ZM5.73405 49.3485H14.5003C15.1554 49.3485 15.6865 49.8804 15.6865 50.5364C15.6865 51.1924 15.1554 51.7242 14.5003 51.7242H5.73405C5.07892 51.7242 4.54791 51.1924 4.54791 50.5364C4.54791 49.8804 5.07892 49.3485 5.73405 49.3485Z" fill="#F59E0B"/>
<path d="M44.1189 40.1447C43.449 40.4441 42.7487 40.5856 42.0588 40.5856C40.8537 40.5866 39.6828 40.1542 38.7661 39.375L29.6775 43.7168V43.7177C29.6946 43.7957 29.7088 43.8726 29.7211 43.9506L51.3382 45.5537L44.3504 40.0345C44.2745 40.0725 44.1967 40.1096 44.1189 40.1447Z" fill="#F59E0B"/>
<path d="M47.8784 23.011C47.8898 23.0262 47.9011 23.0414 47.9125 23.0565C48.2143 23.4661 48.6271 23.7806 49.1138 23.9669C49.2154 24.0058 49.3179 24.0381 49.4213 24.0648C49.6006 24.1104 49.7819 24.136 49.9641 24.1436C50.3759 24.1617 50.7887 24.0838 51.1758 23.9108C51.3808 23.8196 51.5706 23.7046 51.7423 23.5697C52.1228 23.2713 52.417 22.8741 52.5944 22.4094C52.8516 21.7366 52.8317 21.003 52.5375 20.3444C52.3904 20.0147 52.1845 19.7248 51.9302 19.4844C51.6768 19.244 51.376 19.053 51.0392 18.9247C50.726 18.805 50.4006 18.7451 50.0751 18.7451C49.7012 18.7451 49.3283 18.824 48.9763 18.9808C48.2152 19.321 47.6895 19.9738 47.4817 20.7207C47.3176 21.3061 47.3489 21.9494 47.6155 22.5472C47.6886 22.7117 47.7778 22.8675 47.8784 23.011Z" fill="#F59E0B"/>
</svg>
