<svg width="66" height="66" viewBox="0 0 66 66" fill="none" xmlns="http://www.w3.org/2000/svg">
<path d="M18.5698 54.0055C18.5698 55.0991 19.4563 55.9855 20.5498 55.9855H44.6989C45.7924 55.9855 46.6789 55.0991 46.6789 54.0055V49.9424H18.5698V54.0055ZM32.6243 51.6338C33.359 51.6338 33.9544 52.2293 33.9544 52.964C33.9544 53.6986 33.359 54.2941 32.6243 54.2941C31.8897 54.2941 31.2942 53.6986 31.2942 52.964C31.2942 52.2293 31.8897 51.6338 32.6243 51.6338Z" fill="#F59E0B"/>
<path d="M33.0001 34.4517C32.0189 34.4517 31.2234 35.2471 31.2234 36.2283C31.2234 37.2095 32.0189 38.005 33.0001 38.005C33.9813 38.005 34.7768 37.2095 34.7768 36.2283C34.7768 35.2471 33.9813 34.4517 33.0001 34.4517Z" fill="#F59E0B"/>
<path d="M47.4303 18.1278V16.4118C47.4303 15.9928 47.0955 15.6527 46.6788 15.6428V12.0601C46.6788 10.9665 45.7923 10.0801 44.6988 10.0801H20.5498C19.4563 10.0801 18.5698 10.9665 18.5698 12.0601V48.2923H46.6789V24.2648C47.0956 24.2549 47.4304 23.9147 47.4304 23.4958V21.7798C47.4304 21.3607 47.0956 21.0206 46.6789 21.0107V18.8968C47.0955 18.8869 47.4303 18.5468 47.4303 18.1278ZM31.6801 12.2704H34.3201C34.7754 12.2704 35.1451 12.6394 35.1451 13.0954C35.1451 13.5508 34.7754 13.9204 34.3201 13.9204H31.6801C31.2247 13.9204 30.8551 13.5508 30.8551 13.0954C30.8551 12.6394 31.2247 12.2704 31.6801 12.2704ZM23.8077 16.6484H25.9969C26.4525 16.6484 26.8219 17.0178 26.8219 17.4734C26.8219 17.9291 26.4525 18.2984 25.9969 18.2984H23.8077C23.3521 18.2984 22.9827 17.9291 22.9827 17.4734C22.9827 17.0178 23.3521 16.6484 23.8077 16.6484ZM23.8077 20.2124H25.9969C26.4525 20.2124 26.8219 20.5817 26.8219 21.0374C26.8219 21.4931 26.4525 21.8624 25.9969 21.8624H23.8077C23.3521 21.8624 22.9827 21.4931 22.9827 21.0374C22.9827 20.5818 23.3521 20.2124 23.8077 20.2124ZM41.9523 36.5522C41.9523 37.7591 41.0485 38.7758 39.8501 38.917L39.7387 38.9301C39.7181 38.9813 39.697 39.0322 39.6752 39.0828L39.7448 39.1709C40.4924 40.1182 40.4127 41.4761 39.5593 42.3297L39.1014 42.7876C38.6516 43.2373 38.0536 43.485 37.4174 43.485C36.8848 43.485 36.3609 43.3032 35.9426 42.9732L35.8544 42.9035C35.8038 42.9252 35.7529 42.9464 35.7018 42.9669L35.6886 43.0782C35.5474 44.2769 34.5308 45.1807 33.3239 45.1807H32.6763C31.4694 45.1807 30.4528 44.2769 30.3116 43.0784L30.2984 42.967C30.2473 42.9464 30.1965 42.9254 30.1458 42.9037L30.0576 42.9732C29.6392 43.3033 29.1155 43.4851 28.5828 43.4851C27.9466 43.4851 27.3486 43.2374 26.8987 42.7876L26.441 42.3298C25.5875 41.4763 25.5077 40.1183 26.2553 39.171L26.3249 39.0828C26.3032 39.0321 26.2821 38.9812 26.2615 38.9301L26.1502 38.917C24.9516 38.7758 24.0478 37.7591 24.0478 36.5522V35.9047C24.0478 34.6978 24.9516 33.6811 26.1501 33.5399L26.2615 33.5268C26.2821 33.4756 26.3032 33.4247 26.325 33.374L26.2554 33.2859C25.5077 32.3385 25.5875 30.9805 26.4409 30.1272L26.8988 29.6692C27.3486 29.2195 27.9466 28.9718 28.5829 28.9718C29.1156 28.9718 29.6393 29.1536 30.0577 29.4836L30.1458 29.5532C30.1966 29.5315 30.2473 29.5103 30.2985 29.4898L30.3116 29.3785C30.4529 28.1799 31.4695 27.276 32.6763 27.276H33.3239C34.5309 27.276 35.5475 28.1799 35.6887 29.3784L35.7018 29.4898C35.7529 29.5103 35.8039 29.5315 35.8545 29.5532L35.9426 29.4836C36.361 29.1535 36.8847 28.9717 37.4175 28.9717C38.0536 28.9717 38.6516 29.2194 39.1014 29.6691L39.5595 30.1271C40.4127 30.9806 40.4925 32.3385 39.7449 33.2857L39.6753 33.3739C39.697 33.4245 39.7181 33.4755 39.7387 33.5266L39.85 33.5397C41.0486 33.681 41.9524 34.6976 41.9524 35.9045L41.9523 36.5522ZM41.4409 25.4264H23.8077C23.3521 25.4264 22.9827 25.0571 22.9827 24.6014C22.9827 24.1458 23.3521 23.7764 23.8077 23.7764H41.4409C41.8965 23.7764 42.2659 24.1458 42.2659 24.6014C42.2659 25.0571 41.8965 25.4264 41.4409 25.4264ZM28.4607 21.0374C28.4607 20.5817 28.8301 20.2124 29.2857 20.2124H31.4749C31.9305 20.2124 32.2999 20.5817 32.2999 21.0374C32.2999 21.4931 31.9305 21.8624 31.4749 21.8624H29.2857C28.8301 21.8624 28.4607 21.4931 28.4607 21.0374ZM41.4409 21.8624H34.7637C34.3081 21.8624 33.9388 21.4931 33.9388 21.0374C33.9388 20.5817 34.3081 20.2124 34.7637 20.2124H41.4409C41.8965 20.2124 42.2659 20.5817 42.2659 21.0374C42.2659 21.4931 41.8965 21.8624 41.4409 21.8624ZM41.4409 18.2984H29.2857C28.8301 18.2984 28.4607 17.9291 28.4607 17.4734C28.4607 17.0178 28.8301 16.6484 29.2857 16.6484H41.4409C41.8965 16.6484 42.2659 17.0178 42.2659 17.4734C42.2659 17.9291 41.8965 18.2984 41.4409 18.2984Z" fill="#F59E0B"/>
<path d="M39.6568 35.1786L38.4827 35.0402C38.3383 34.373 38.075 33.7496 37.7159 33.1935L38.4494 32.2638C38.679 31.9728 38.6545 31.556 38.3925 31.2939L37.9345 30.836C37.7926 30.6941 37.6054 30.6219 37.4174 30.6219C37.258 30.6219 37.0981 30.6738 36.9647 30.7791L36.035 31.5127C35.479 31.1536 34.8555 30.8903 34.1883 30.7458L34.0499 29.5718C34.0065 29.2037 33.6944 28.9263 33.3237 28.9263H32.6761C32.3055 28.9263 31.9934 29.2037 31.9501 29.5718L31.8116 30.7458C31.1445 30.8903 30.521 31.1536 29.965 31.5127L29.0353 30.7791C28.9019 30.6738 28.7419 30.6219 28.5826 30.6219C28.3945 30.6219 28.2073 30.6941 28.0654 30.836L27.6076 31.2939C27.3454 31.556 27.3209 31.9728 27.5506 32.2638L28.2841 33.1935C27.9251 33.7495 27.6617 34.373 27.5173 35.0401L26.3433 35.1785C25.9751 35.2219 25.6978 35.5339 25.6978 35.9046V36.5522C25.6978 36.9229 25.9751 37.2349 26.3433 37.2783L27.5173 37.4167C27.6618 38.0839 27.9251 38.7073 28.2841 39.2634L27.5506 40.1931C27.321 40.4841 27.3455 40.9008 27.6076 41.163L28.0654 41.6208C28.2073 41.7627 28.3945 41.835 28.5826 41.835C28.7419 41.835 28.9019 41.7831 29.0353 41.6779L29.965 40.9443C30.521 41.3034 31.1445 41.5667 31.8116 41.7111L31.9501 42.8851C31.9934 43.2533 32.3055 43.5307 32.6761 43.5307H33.3237C33.6944 43.5307 34.0065 43.2533 34.0499 42.8851L34.1883 41.7111C34.8554 41.5667 35.479 41.3034 36.035 40.9443L36.9647 41.6779C37.0982 41.7831 37.258 41.835 37.4174 41.835C37.6055 41.835 37.7926 41.7627 37.9345 41.6208L38.3925 41.163C38.6545 40.9009 38.6791 40.4841 38.4494 40.1931L37.7159 39.2634C38.075 38.7073 38.3383 38.0839 38.4827 37.4167L39.6568 37.2783C40.0249 37.2349 40.3022 36.9229 40.3022 36.5522V35.9046C40.3022 35.534 40.0249 35.2219 39.6568 35.1786ZM33 39.6551C31.1105 39.6551 29.5733 38.1179 29.5733 36.2284C29.5733 34.339 31.1105 32.8018 33 32.8018C34.8894 32.8018 36.4266 34.339 36.4266 36.2284C36.4266 38.1179 34.8894 39.6551 33 39.6551Z" fill="#F59E0B"/>
</svg>
