<svg width="62" height="66" viewBox="0 0 62 66" fill="none" xmlns="http://www.w3.org/2000/svg">
<path d="M60.7209 14.8802C60.3208 14.0139 59.648 13.328 58.8345 12.8762C58.0209 12.4242 57.0705 12.1953 56.0676 12.1953C54.3097 12.1953 52.3827 12.8994 50.6777 14.406C49.2571 15.6593 48.0029 17.4729 47.0961 19.8851V2.10839C47.096 0.945398 46.1497 0 44.9876 0H15.3985C14.2343 0 13.2901 0.945398 13.2901 2.10839V19.3827L8.82503 17.7009C8.14531 17.4455 7.44419 17.324 6.75428 17.324C5.56267 17.324 4.41076 17.6846 3.44422 18.3432C2.47665 18.9997 1.69355 19.9561 1.25076 21.1315C0.994361 21.8103 0.872803 22.5133 0.872803 23.2013C0.872803 24.3918 1.23555 25.5437 1.89206 26.5114C2.54858 27.4769 3.50597 28.261 4.68134 28.7037L8.64172 30.1951C8.39861 30.3127 8.16361 30.4484 7.93867 30.6014C7.02472 31.2246 6.2781 32.1313 5.86057 33.2448C5.61642 33.8861 5.50196 34.5518 5.50196 35.2052C5.50196 36.3349 5.84227 37.4241 6.46746 38.3429C7.09163 39.2579 7.99732 39.9986 9.11172 40.422L9.40549 40.5313C9.29708 40.5951 9.1897 40.6631 9.08632 40.733C8.16645 41.354 7.42382 42.2597 7.00629 43.3773C6.76214 44.0186 6.64767 44.6833 6.64767 45.3377C6.64767 46.4685 6.98902 47.5556 7.61524 48.4706C8.23322 49.3904 9.14008 50.132 10.2525 50.5495L10.5454 50.6609C10.432 50.7247 10.3234 50.7937 10.2162 50.8676C9.30031 51.4866 8.55458 52.3934 8.13615 53.5059C7.89188 54.1513 7.77857 54.817 7.77857 55.4714C7.77857 56.596 8.12004 57.6903 8.74408 58.6041C9.36824 59.5201 10.275 60.2657 11.3885 60.6833L15.1918 62.1158C15.8331 62.3568 16.4997 62.4744 17.1533 62.4744C18.0662 62.4744 18.9506 62.2455 19.7408 61.8321C20.9456 62.6547 22.3356 63.4328 23.9403 64.0874C26.5674 65.1593 29.7468 65.904 33.5369 65.9921C33.7769 65.9983 34.0131 66.0004 34.248 66.0004C37.9389 66.0023 41.0219 65.2972 43.5823 64.0165C45.5022 63.0562 47.1202 61.7755 48.4738 60.2629C50.5082 57.9944 51.9529 55.2203 53.0441 52.186C54.1313 49.1597 54.8689 45.867 55.4656 42.5195C55.4808 42.4486 55.5578 42.104 55.6825 41.5418C56.1738 39.3301 57.4058 33.785 58.5527 28.6586C59.1261 26.0963 59.6783 23.6383 60.1068 21.756C60.3196 20.8158 60.502 20.0185 60.6407 19.4258C60.7095 19.1298 60.7674 18.8848 60.8129 18.6982C60.8555 18.5158 60.8899 18.3842 60.899 18.3528C61.0522 17.8168 61.1269 17.293 61.1269 16.7875C61.1282 16.1041 60.9875 15.4557 60.7209 14.8802ZM5.42294 26.7301C4.66406 26.4445 4.06027 25.9459 3.63668 25.326C3.21413 24.7038 2.98106 23.9621 2.98106 23.2013C2.98106 22.7606 3.05815 22.3148 3.22431 21.8731C3.511 21.1154 4.00755 20.5095 4.62952 20.0859C5.24956 19.6644 5.99322 19.4304 6.75415 19.4304C7.19282 19.4304 7.64051 19.5084 8.08034 19.6735L13.29 21.6341V29.6928L5.42294 26.7301ZM8.21324 37.1575C7.82523 36.584 7.61047 35.9052 7.61047 35.2051C7.61047 34.8008 7.6824 34.3917 7.83322 33.9863C8.09465 33.2912 8.55458 32.7341 9.12396 32.345C9.69347 31.958 10.3763 31.7432 11.0724 31.7432C11.4766 31.7432 11.8859 31.8161 12.2902 31.9662H12.2942L13.2901 32.343L16.0984 33.4008C16.6172 33.5943 17.0549 33.8982 17.4095 34.2781C17.527 34.4037 17.6374 34.5434 17.7388 34.6914C18.1259 35.2599 18.3377 35.9436 18.3377 36.6386C18.3377 37.0439 18.2657 37.4532 18.1138 37.8625C17.9497 38.3011 17.7085 38.6791 17.4097 38.9993C17.2323 39.1907 17.0388 39.3539 16.823 39.5018C16.2536 39.8899 15.5758 40.1017 14.8758 40.1017C14.4705 40.1017 14.0612 40.0296 13.657 39.8768L13.2902 39.7369L9.85357 38.4481C9.15748 38.1828 8.60022 37.7269 8.21324 37.1575ZM9.35496 47.2869C8.96889 46.7165 8.75722 46.0337 8.75722 45.3376C8.75722 44.9323 8.82812 44.5232 8.98113 44.1198C9.24152 43.4197 9.69643 42.8676 10.271 42.4745C10.8394 42.0874 11.5232 41.8745 12.2193 41.8745C12.5739 41.8745 12.9325 41.9273 13.2902 42.0488C13.3409 42.0609 13.3874 42.0832 13.4381 42.0995L17.2416 43.5322C17.3004 43.5534 17.355 43.5747 17.4098 43.601C18.0298 43.8705 18.5273 44.2959 18.8809 44.8188C19.2699 45.3923 19.4838 46.072 19.4838 46.7721C19.4838 47.1774 19.4129 47.5847 19.2618 47.99C19.2618 47.994 19.2568 47.9981 19.2568 48.0021C18.9953 48.6951 18.5354 49.2473 17.9711 49.6312C17.4017 50.0192 16.7178 50.2331 16.0217 50.2331C15.6175 50.2331 15.2092 50.1621 14.8038 50.0111L13.2902 49.4407L11.0005 48.5755C10.3002 48.3143 9.7471 47.8584 9.35496 47.2869ZM20.4369 57.9798C20.4238 58.0265 20.4075 58.077 20.3914 58.1237C20.1289 58.8188 19.673 59.3749 19.1016 59.7629C18.5312 60.151 17.8534 60.3677 17.1533 60.3677C16.748 60.3677 16.3386 60.2958 15.9345 60.1428L12.1301 58.7092C11.43 58.4479 10.8779 57.9878 10.4897 57.4184C10.1017 56.85 9.88696 56.1682 9.88696 55.4712C9.88696 55.0659 9.95786 54.6526 10.1109 54.2524C10.3723 53.5533 10.8312 52.995 11.4007 52.6081C11.9528 52.2313 12.6155 52.0215 13.2902 52.0093H13.349C13.7532 52.0093 14.1625 52.0771 14.5678 52.2313L14.7331 52.2921L18.3703 53.6628C19.0704 53.9273 19.6236 54.3843 20.0156 54.9536C20.4036 55.526 20.6154 56.2048 20.6154 56.9059C20.6152 57.2594 20.5605 57.6212 20.4369 57.9798ZM17.9881 41.5596L17.6851 41.4452C17.7946 41.3823 17.9009 41.3144 18.0083 41.2446C18.9273 40.6245 19.6689 39.7168 20.0873 38.6043C20.3316 37.9589 20.4459 37.2913 20.4459 36.6388C20.4459 35.5101 20.1045 34.422 19.4794 33.5061C18.9697 32.7524 18.2656 32.114 17.4095 31.6805V6.32517H43.0596V47.7916H21.4896C21.5523 47.451 21.5919 47.1107 21.5919 46.7722C21.5919 45.6416 21.2516 44.5535 20.6274 43.6336C20.0033 42.7197 19.0964 41.976 17.9881 41.5596ZM31.6698 52.1196C31.6698 52.9343 31.0082 53.5969 30.1936 53.5969C29.378 53.5969 28.7175 52.9343 28.7175 52.1196C28.7175 51.3061 29.378 50.6446 30.1936 50.6446C31.0081 50.6447 31.6698 51.3062 31.6698 52.1196ZM58.8718 17.7749C58.8385 17.8883 58.7999 18.0473 58.7411 18.2905C58.5274 19.1851 58.0876 21.1112 57.5476 23.5082C55.9287 30.6936 53.4048 42.0774 53.4048 42.0774L53.3998 42.0996L53.3957 42.1219C52.8749 45.052 52.2477 47.9 51.3915 50.5057C50.7502 52.4621 49.9803 54.2797 49.0359 55.8976C47.6176 58.3272 45.8242 60.3018 43.4535 61.6899C41.0797 63.0749 38.104 63.8903 34.2479 63.8924C34.0311 63.8924 33.8103 63.8883 33.5853 63.8843C30.0433 63.8001 27.1284 63.1121 24.7373 62.1365C23.5085 61.633 22.4194 61.0535 21.4537 60.4395C21.8317 59.9785 22.1447 59.4527 22.3635 58.865C22.4739 58.5752 22.5581 58.2754 22.6127 57.9796C22.6563 57.7729 22.6836 57.5653 22.6999 57.3595L44.9872 57.5581C46.1493 57.5581 47.0956 56.6139 47.0956 55.4507V27.3187C47.4786 25.9722 47.9719 24.2357 48.6113 21.9905C49.4329 19.1092 50.7156 17.1851 52.0732 15.9846C53.4317 14.785 54.8746 14.3028 56.0671 14.3028C56.9768 14.3028 57.7296 14.5824 58.2291 15.01C58.4783 15.2247 58.6708 15.473 58.8056 15.7648C58.9394 16.0555 59.0174 16.3899 59.0184 16.7871C59.0188 17.0819 58.9752 17.4101 58.8718 17.7749Z" fill="#F59E0B"/>
<path d="M30.1936 38.0552C34.9493 38.0552 38.8044 34.2002 38.8044 29.4434C38.8044 24.6867 34.9493 20.8315 30.1936 20.8315C25.4359 20.8315 21.5817 24.6866 21.5808 29.4434C21.5817 34.2002 25.4358 38.0552 30.1936 38.0552ZM35.2361 34.4848C34.4914 35.2284 33.5877 35.8058 32.5786 36.1637C33.0629 35.5791 33.464 34.8302 33.7791 33.964H35.7082C35.5591 34.1445 35.4012 34.3196 35.2361 34.4848ZM36.2532 33.2001H34.0263C34.312 32.1829 34.4832 31.0401 34.5146 29.8253H37.3129C37.2491 31.0603 36.8672 32.2113 36.2532 33.2001ZM37.3129 29.0623H34.5115C34.4821 27.8475 34.3151 26.7037 34.0283 25.6876H36.2532C36.8672 26.6764 37.2491 27.8263 37.3129 29.0623ZM35.2361 24.4029C35.4012 24.5681 35.5593 24.7424 35.7082 24.9226H33.7791C33.6433 24.5478 33.4914 24.1932 33.3222 23.8659C33.1034 23.4393 32.8531 23.0544 32.5805 22.7241C33.5887 23.0828 34.4923 23.6603 35.2361 24.4029ZM30.5755 22.3239C30.695 22.331 30.8126 22.3391 30.9312 22.3512C31.1165 22.4363 31.304 22.5497 31.4874 22.6997C32.0486 23.1566 32.5694 23.9306 32.9645 24.9225H30.5756L30.5755 22.3239ZM30.5755 25.6876H33.2289C33.5339 26.6795 33.7182 27.8304 33.7518 29.0623H30.5755V25.6876ZM30.5755 29.8253H33.7487C33.7142 31.0583 33.5287 32.2083 33.2279 33.2001H30.5755V29.8253ZM30.5755 33.964H32.9594C32.8622 34.2123 32.7578 34.4533 32.6443 34.6701C32.3061 35.3256 31.9067 35.8443 31.4874 36.1869C31.304 36.3378 31.1167 36.4524 30.9312 36.5375C30.8126 36.5477 30.695 36.5577 30.5755 36.5638V33.964ZM25.1522 34.4848C24.986 34.3195 24.8259 34.1443 24.68 33.964H26.606C26.7438 34.3399 26.8938 34.6936 27.0629 35.0208C27.2838 35.4504 27.531 35.8322 27.8056 36.1637C26.7974 35.8059 25.8938 35.2284 25.1522 34.4848ZM29.8116 36.5638C29.692 36.5577 29.5735 36.5475 29.4539 36.5375C29.2685 36.4524 29.0811 36.3379 28.8966 36.1869C28.3364 35.729 27.8177 34.9549 27.4205 33.964H29.8116V36.5638ZM29.8116 33.2001H27.1561C26.8532 32.2083 26.6668 31.0563 26.6354 29.8253H29.8116V33.2001ZM29.8116 29.0623H26.6364C26.6678 27.8304 26.8563 26.6795 27.1592 25.6876H29.8117L29.8116 29.0623ZM28.8966 22.6998C29.0811 22.5499 29.2685 22.4364 29.4539 22.3513C29.5735 22.3392 29.692 22.3311 29.8116 22.324V24.9228H27.4255C27.5227 24.6755 27.6282 24.4365 27.7416 24.2177C28.0801 23.561 28.4783 23.0423 28.8966 22.6998ZM25.1522 24.4029C25.8938 23.6603 26.7995 23.0808 27.8066 22.7241C27.3254 23.3077 26.9211 24.0585 26.606 24.9226H24.68C24.8259 24.7423 24.986 24.568 25.1522 24.4029ZM24.1319 25.6876H26.3587C26.0731 26.7037 25.9019 27.8475 25.8704 29.0623H23.0721C23.137 27.8263 23.5179 26.6764 24.1319 25.6876ZM25.8735 29.8253C25.9048 31.0401 26.07 32.1829 26.3587 33.2001H24.1319C23.5179 32.2113 23.137 31.0603 23.0721 29.8253H25.8735Z" fill="#F59E0B"/>
</svg>
